Love for All and Sharing is the first step to solving all the problems of humanity.

Websites I want to share.

    
http://www.shareintl.org/

    
http://www.lightmiddleway.com


Thank you very much

No credit for me...credit to EVERYONE for sharing
 
http://thepiratebay.org/user/raymondhome/

PLOT
Seven youths have to defeat a demonic creature named Pennywise which dresses in a clown suit and terrorizes a 1960's town in Maine.

Duration : 3.1 hours
Overall bit rate : 1 024 Kbps

Video
ID : 0
Format : MPEG-4 Visual
Format settings, BVOP : Yes
Format settings, QPel : No
Format settings, GMC : No warppoints
Format settings, Matrix : Default (MPEG)
Codec ID : XVID
Codec ID/Hint : XviD
Duration : 1h 33mn
Bit rate : 826 Kbps
Width : 544 pixels
Height : 304 pixels
Display aspect ratio : 16:9
Frame rate : 23.976 fps
Resolution : 8 bits
Scan type : Progressive
Bits/(Pixel*Frame) : 0.208
Stream size : 555 MiB (81%)

Audio
ID : 1
Format : AC-3
Format/Info : Audio Coding 3
Format profile : Dolby Digital
Format_Settings_ModeExtension : CM (complete main)
Codec ID : 2000
Duration : 1h 33mn
Bit rate mode : Constant
Bit rate : 192 Kbps
Channel(s) : 2 channels
Channel positions : Front: L R
Sampling rate : 48.0 KHz
Stream size : 129 MiB (19%)
Alignment : Aligned on interleaves
Interleave, duration : 96 ms (2.30 video frames)
Interleave, preload duration : 96 ms

credit Shedevil BIG BIG BIG TIME & to all the people who made it possible for us to share this...especially EVERYONE involve in the production of the movie...IF YOU LIKE IT...BUY IT :)

*****help what we can with others in need...the world is ONE big family*****